<svg xmlns="http://www.w3.org/2000/svg" stroke="#f38c63" stroke-width="5" version="1.1" xmlns:xlink="http://www.w3.org/1999/xlink" width="80" height="80" x="0" y="0" viewBox="0 0 256 256" style="enable-background:new 0 0 512 512" xml:space="preserve" class=""><g><g fill="#f38c63"><path d="M156.97 120.64c-19.61 0-51.71 2.25-68.43 9.61l6.58-16.02 15.61-38c4.35-.14 8.8-.23 13.3-.23 50.53 0 78.89 8.72 79.31 13.2-.11 1.17-5.68 6.3-30.93 10.03a3.447 3.447 0 0 0-2.91 3.92 3.45 3.45 0 0 0 3.41 2.95c.17 0 .34-.01.51-.04 36.83-5.44 36.83-14.03 36.83-16.86 0-6.54-8.83-11.5-27.01-15.16-15.85-3.19-36.87-4.95-59.2-4.95-3.52 0-7 .06-10.44.15l1.29-3.14c5.5-.24 11.08-.38 16.63-.38 37.01 0 71.67 5.52 88.28 14.07.5.26 1.04.38 1.57.38 1.25 0 2.46-.68 3.08-1.87.87-1.7.2-3.78-1.49-4.65-17.78-9.15-52.82-14.83-91.43-14.83-4.59 0-9.19.11-13.75.27l1.11-2.7c.81-1.98.84-5.16-3.64-9.12-2.59-2.29-6.31-4.49-10.46-6.2-8.68-3.57-18.49-4.65-20.8.99l-8.83 21.51C37.37 68.89 19.69 77.2 19.69 89.66c0 6.09 4.62 11.68 13.73 16.6.52.28 1.09.41 1.64.41 1.23 0 2.42-.65 3.04-1.81a3.45 3.45 0 0 0-1.4-4.68c-6.52-3.52-10.11-7.26-10.11-10.53 0-4.48 6.11-12.66 45.51-18.67l-1.57 3.83c-34.58 5.36-34.61 13.55-34.61 16.26 0 3.35 2.37 6.3 7.06 8.78a3.457 3.457 0 0 0 4.67-1.44c.89-1.69.24-3.77-1.44-4.67-2.59-1.37-3.32-2.42-3.38-2.65.25-1.27 5.46-5.38 24.62-8.77L60.23 99.9l-20.65 50.27c-.81 1.97-.84 5.16 3.64 9.12 2.59 2.29 6.3 4.49 10.46 6.2s8.34 2.75 11.8 2.94c.39.02.76.03 1.12.03 5.14 0 7.12-2.12 7.88-3.96l4.25-10.35c6.22 36.12 38.93 63.76 78.25 63.76 43.74 0 79.34-34.2 79.34-76.23 0-16.65-51.89-21.04-79.34-21.04zm72.43 21.04c0 4.8-25.56 14.14-72.43 14.14s-72.43-9.34-72.43-14.14 25.56-14.14 72.43-14.14 72.43 9.34 72.43 14.14zM76.95 108.83c-6.08-2.5-9.46-5.53-10.13-6.8L87.7 51.19c2.7 2.39 6.44 4.55 10.39 6.17 3.96 1.63 8.13 2.69 11.74 2.88l-20.9 50.87c-1.37.44-5.91.21-11.99-2.28zm25.22-61.39c5 2.06 8.19 4.48 9.53 5.98-1.99.14-5.97-.39-10.98-2.44-5-2.06-8.18-4.48-9.53-5.98 2.03-.15 5.98.39 10.98 2.44zM68.29 161.39c-1.39.44-5.92.2-11.98-2.29s-9.45-5.52-10.14-6.8l17.77-43.26c2.7 2.39 6.44 4.55 10.39 6.17 3.96 1.63 8.13 2.69 11.74 2.88l-17.79 43.3zM156.98 211c-36.43 0-66.58-25.91-71.61-59.47 15.48 8.62 50.66 11.19 71.61 11.19s56.13-2.57 71.61-11.19c-5.02 33.56-35.18 59.47-71.61 59.47z" fill="#f38c63" opacity="1" data-original="#f38c63" class=""></path><path d="M159.82 100.74c-1.9.19-3.28 1.88-3.09 3.78a3.449 3.449 0 0 0 3.43 3.11c.11 0 .23 0 .34-.02 1.21-.12 2.4-.24 3.57-.37 1.9-.21 3.26-1.92 3.05-3.81s-1.87-3.26-3.81-3.05c-1.15.13-2.32.25-3.5.36zM228.89 88.71c0 4.94-10.88 12.2-35.18 17.3a3.45 3.45 0 0 0-2.67 4.09 3.447 3.447 0 0 0 3.37 2.74c.24 0 .47-.02.71-.07 18.55-3.89 40.67-11.22 40.67-24.05 0-3.02-1.27-5.92-3.77-8.62a3.45 3.45 0 0 0-4.88-.19 3.458 3.458 0 0 0-.19 4.88c1.28 1.38 1.93 2.7 1.93 3.92zM45.08 111.34c.39.14.78.21 1.17.21a3.45 3.45 0 0 0 1.17-6.7c-1.06-.38-2.09-.78-3.09-1.17-1.77-.7-3.78.17-4.48 1.94s.17 3.78 1.94 4.48c1.06.42 2.16.84 3.29 1.24zM39.13 163.57a3.462 3.462 0 0 0-4.58-1.7l-12.85 5.89c-1.73.8-2.49 2.85-1.7 4.58a3.44 3.44 0 0 0 3.14 2.01c.48 0 .97-.1 1.44-.31l12.85-5.89c1.73-.8 2.5-2.85 1.7-4.58zM60.7 171.85c-1.91 0-3.45 1.54-3.45 3.45v13.68c0 1.91 1.54 3.45 3.45 3.45s3.45-1.54 3.45-3.45V175.3c0-1.91-1.54-3.45-3.45-3.45zM49.92 170.59a3.449 3.449 0 0 0-4.74 1.16l-10.99 18.09a3.449 3.449 0 0 0 2.95 5.24c1.17 0 2.3-.59 2.95-1.66l10.99-18.09c.99-1.63.47-3.75-1.16-4.74z" fill="#f38c63" opacity="1" data-original="#f38c63" class=""></path></g></g></svg>